<?xml version="1.0" encoding="utf-8"?><!-- Uploaded to: SVG Repo, www.svgrepo.com, Generator: SVG Repo Mixer Tools -->
<svg fill="#000000" width="800px" height="800px" viewBox="0 0 24 24" id="bike-2" data-name="Flat Color" xmlns="http://www.w3.org/2000/svg" class="icon flat-color"><path id="secondary" d="M18,20a4,4,0,1,1,4-4A4,4,0,0,1,18,20Zm0-6a2,2,0,1,0,2,2A2,2,0,0,0,18,14ZM6,20a4,4,0,1,1,4-4A4,4,0,0,1,6,20Zm0-6a2,2,0,1,0,2,2A2,2,0,0,0,6,14Z" style="fill: rgb(44, 169, 188);"></path><path id="primary" d="M17.13,5.64a2,2,0,0,0-2-1.64H14a1,1,0,0,0,0,2h1.17l.3,1.68-3.39,3.6-.54-2.67A2,2,0,0,0,9.58,7H8A1,1,0,0,0,8,9H9.58l.81,4.06L8.57,15H6a1,1,0,0,0,0,2H9a1,1,0,0,0,.73-.31l6.19-6.56,1.1,6A1,1,0,0,0,18,17a.55.55,0,0,0,.18,0,1,1,0,0,0,.8-1.16Z" style="fill: rgb(0, 0, 0);"></path></svg>